<svg width="254" height="254" viewBox="0 0 254 254" fill="none" xmlns="http://www.w3.org/2000/svg">
<path d="M193.842 60.1583H60.1583V193.842H193.842V60.1583Z" fill="white"/>
<path d="M193.842 254L254 193.842L223.921 188.71L193.842 193.842L188.352 221.355L193.842 254Z" fill="#EA4335"/>
<path d="M0 193.842V233.947C0 245.027 8.97334 254 20.0521 254H60.1583L66.3347 223.921L60.1583 193.842L27.3834 188.71L0 193.842Z" fill="#188038"/>
<path d="M254 60.1583V20.0521C254 8.97334 245.027 0 233.948 0H193.842C190.182 14.9185 188.353 25.8974 188.352 32.9367C188.352 39.9752 190.182 49.0491 193.842 60.1583C207.147 63.9683 217.173 65.8733 223.921 65.8733C230.668 65.8733 240.695 63.969 254 60.1583Z" fill="#1967D2"/>
<path d="M254 60.1583H193.842V193.842H254V60.1583Z" fill="#FBBC04"/>
<path d="M193.842 193.842H60.1583V254H193.842V193.842Z" fill="#34A853"/>
<path d="M193.842 0H20.0531C8.97334 0 0 8.97334 0 20.0521V193.842H60.1583V60.1583H193.842V0Z" fill="#4285F4"/>
<path d="M87.5804 163.864C82.5837 160.488 79.124 155.559 77.2358 149.04L88.8335 144.262C89.8852 148.273 91.7234 151.381 94.3481 153.587C96.9546 155.792 100.13 156.879 103.839 156.879C107.632 156.879 110.891 155.725 113.614 153.419C116.339 151.113 117.709 148.172 117.709 144.613C117.709 140.97 116.272 137.995 113.398 135.69C110.524 133.384 106.914 132.231 102.603 132.231H95.9019V120.751H101.917C105.627 120.751 108.752 119.748 111.292 117.742C113.832 115.738 115.102 112.996 115.102 109.504C115.102 106.396 113.966 103.923 111.694 102.068C109.421 100.213 106.546 99.2773 103.054 99.2773C99.6444 99.2773 96.9377 100.18 94.9325 102.001C92.9279 103.827 91.4211 106.133 90.554 108.702L79.0744 103.923C80.5944 99.6117 83.3854 95.8017 87.4792 92.5096C91.5729 89.2175 96.8038 87.5635 103.154 87.5635C107.85 87.5635 112.077 88.4664 115.821 90.2871C119.564 92.1088 122.504 94.6319 124.627 97.8406C126.75 101.065 127.802 104.675 127.802 108.685C127.802 112.779 126.816 116.239 124.845 119.079C122.873 121.92 120.45 124.092 117.575 125.613V126.298C121.287 127.828 124.51 130.341 126.9 133.567C129.323 136.826 130.543 140.719 130.543 145.265C130.543 149.809 129.389 153.87 127.083 157.429C124.777 160.989 121.587 163.796 117.541 165.835C113.481 167.874 108.919 168.911 103.856 168.911C97.9904 168.927 92.577 167.239 87.5804 163.864ZM158.815 106.312L146.083 115.519L139.716 105.861L162.559 89.3842H171.315V167.105H158.815V106.312Z" fill="#4285F4"/>
</svg>
