<svg width="21" height="21" viewBox="0 0 21 21" fill="none" xmlns="http://www.w3.org/2000/svg">
<path d="M3.29312 5.945L10.75 10.2585L18.2069 5.945M10.75 18.86V10.25M18.4375 13.6667V6.83333C18.4372 6.53375 18.3581 6.23952 18.2082 5.98016C18.0583 5.72079 17.8428 5.50541 17.5833 5.35562L11.6042 1.93896C11.3445 1.78902 11.0499 1.71008 10.75 1.71008C10.4501 1.71008 10.1555 1.78902 9.89583 1.93896L3.91667 5.35562C3.65722 5.50541 3.44173 5.72079 3.29181 5.98016C3.14189 6.23952 3.06281 6.53375 3.0625 6.83333V13.6667C3.06281 13.9662 3.14189 14.2605 3.29181 14.5198C3.44173 14.7792 3.65722 14.9946 3.91667 15.1444L9.89583 18.561C10.1555 18.711 10.4501 18.7899 10.75 18.7899C11.0499 18.7899 11.3445 18.711 11.6042 18.561L17.5833 15.1444C17.8428 14.9946 18.0583 14.7792 18.2082 14.5198C18.3581 14.2605 18.4372 13.9662 18.4375 13.6667Z" stroke="black" stroke-width="2" stroke-linecap="round" stroke-linejoin="round"/>
</svg>
