<svg width="21" height="21" viewBox="0 0 21 21" fill="none" xmlns="http://www.w3.org/2000/svg">
<path d="M8.26439 7.68751C8.4652 7.11664 8.86158 6.63527 9.38331 6.32864C9.90503 6.02202 10.5184 5.90994 11.1149 6.01224C11.7113 6.11455 12.2523 6.42465 12.6421 6.88761C13.0318 7.35057 13.2451 7.93652 13.2442 8.54168C13.2442 10.25 10.6817 11.1042 10.6817 11.1042M10.75 14.5208H10.7586M19.2917 10.25C19.2917 14.9674 15.4674 18.7917 10.75 18.7917C6.03258 18.7917 2.20834 14.9674 2.20834 10.25C2.20834 5.53258 6.03258 1.70834 10.75 1.70834C15.4674 1.70834 19.2917 5.53258 19.2917 10.25Z" stroke="black" stroke-width="2" stroke-linecap="round" stroke-linejoin="round"/>
</svg>
