<svg width="40" height="40" viewBox="0 0 40 40" fill="none" xmlns="http://www.w3.org/2000/svg">
<path d="M10 36.6667C9.08335 36.6667 8.29891 36.3406 7.64669 35.6884C6.99446 35.0361 6.6678 34.2511 6.66669 33.3334V16.6667C6.66669 15.75 6.99335 14.9656 7.64669 14.3134C8.30002 13.6611 9.08446 13.3345 10 13.3334H11.6667V10C11.6667 7.69447 12.4795 5.72947 14.105 4.10502C15.7306 2.48058 17.6956 1.6678 20 1.66669C22.3045 1.66558 24.27 2.47835 25.8967 4.10502C27.5234 5.73169 28.3356 7.69669 28.3334 10V13.3334H30C30.9167 13.3334 31.7017 13.66 32.355 14.3134C33.0084 14.9667 33.3345 15.7511 33.3334 16.6667V33.3334C33.3334 34.25 33.0072 35.035 32.355 35.6884C31.7028 36.3417 30.9178 36.6678 30 36.6667H10ZM10 33.3334H30V16.6667H10V33.3334ZM20 28.3334C20.9167 28.3334 21.7017 28.0072 22.355 27.355C23.0084 26.7028 23.3345 25.9178 23.3334 25C23.3322 24.0822 23.0061 23.2978 22.355 22.6467C21.7039 21.9956 20.9189 21.6689 20 21.6667C19.0811 21.6645 18.2967 21.9911 17.6467 22.6467C16.9967 23.3022 16.67 24.0867 16.6667 25C16.6634 25.9134 16.99 26.6984 17.6467 27.355C18.3034 28.0117 19.0878 28.3378 20 28.3334ZM15 13.3334H25V10C25 8.61113 24.5139 7.43058 23.5417 6.45835C22.5695 5.48613 21.3889 5.00002 20 5.00002C18.6111 5.00002 17.4306 5.48613 16.4584 6.45835C15.4861 7.43058 15 8.61113 15 10V13.3334Z" fill="black"/>
</svg>
