<svg width="21" height="21" viewBox="0 0 21 21" fill="none" xmlns="http://www.w3.org/2000/svg">
<g clip-path="url(#clip0_4_1983)">
<path d="M10.75 12.8125C12.1652 12.8125 13.3125 11.6652 13.3125 10.25C13.3125 8.83477 12.1652 7.6875 10.75 7.6875C9.33477 7.6875 8.1875 8.83477 8.1875 10.25C8.1875 11.6652 9.33477 12.8125 10.75 12.8125Z" stroke="black" stroke-width="2" stroke-linecap="round" stroke-linejoin="round"/>
<path d="M17.0708 12.8125C16.9571 13.0702 16.9232 13.3559 16.9734 13.633C17.0237 13.9101 17.1558 14.1658 17.3527 14.3671L17.4039 14.4184C17.5628 14.577 17.6888 14.7654 17.7748 14.9728C17.8607 15.1802 17.905 15.4025 17.905 15.627C17.905 15.8515 17.8607 16.0738 17.7748 16.2812C17.6888 16.4886 17.5628 16.677 17.4039 16.8356C17.2453 16.9945 17.0569 17.1205 16.8495 17.2065C16.6421 17.2924 16.4198 17.3367 16.1953 17.3367C15.9708 17.3367 15.7485 17.2924 15.5411 17.2065C15.3337 17.1205 15.1453 16.9945 14.9867 16.8356L14.9354 16.7844C14.7341 16.5875 14.4784 16.4554 14.2013 16.4051C13.9242 16.3549 13.6385 16.3888 13.3808 16.5025C13.1282 16.6108 12.9127 16.7906 12.761 17.0197C12.6092 17.2489 12.5278 17.5175 12.5267 17.7923V17.9375C12.5267 18.3906 12.3467 18.8251 12.0263 19.1455C11.7059 19.4659 11.2714 19.6459 10.8183 19.6459C10.3652 19.6459 9.93072 19.4659 9.61035 19.1455C9.28997 18.8251 9.10999 18.3906 9.10999 17.9375V17.8606C9.10338 17.5779 9.01186 17.3037 8.84734 17.0737C8.68282 16.8437 8.45291 16.6685 8.18749 16.5709C7.92986 16.4572 7.64407 16.4232 7.36699 16.4735C7.0899 16.5237 6.83422 16.6558 6.63291 16.8527L6.58166 16.904C6.423 17.0628 6.23459 17.1888 6.0272 17.2748C5.81981 17.3608 5.59751 17.405 5.37301 17.405C5.14851 17.405 4.92621 17.3608 4.71882 17.2748C4.51143 17.1888 4.32302 17.0628 4.16436 16.904C4.00553 16.7453 3.87952 16.5569 3.79355 16.3495C3.70758 16.1421 3.66333 15.9198 3.66333 15.6953C3.66333 15.4708 3.70758 15.2485 3.79355 15.0411C3.87952 14.8338 4.00553 14.6453 4.16436 14.4867L4.21561 14.4354C4.41253 14.2341 4.54463 13.9784 4.59487 13.7014C4.64511 13.4243 4.61119 13.1385 4.49749 12.8809C4.38921 12.6282 4.20943 12.4128 3.98026 12.261C3.7511 12.1092 3.48256 12.0278 3.2077 12.0267H3.06249C2.60941 12.0267 2.17489 11.8467 1.85452 11.5263C1.53414 11.206 1.35416 10.7714 1.35416 10.3184C1.35416 9.86528 1.53414 9.43075 1.85452 9.11038C2.17489 8.79 2.60941 8.61002 3.06249 8.61002H3.13936C3.42209 8.60341 3.69629 8.51189 3.92631 8.34737C4.15633 8.18285 4.33154 7.95294 4.42916 7.68752C4.54286 7.42989 4.57678 7.1441 4.52654 6.86702C4.47629 6.58993 4.3442 6.33425 4.14728 6.13294L4.09603 6.08169C3.9372 5.92303 3.81119 5.73462 3.72522 5.52723C3.63925 5.31984 3.595 5.09754 3.595 4.87304C3.595 4.64854 3.63925 4.42624 3.72522 4.21885C3.81119 4.01146 3.9372 3.82305 4.09603 3.6644C4.25469 3.50556 4.4431 3.37956 4.65049 3.29358C4.85788 3.20761 5.08018 3.16336 5.30468 3.16336C5.52918 3.16336 5.75148 3.20761 5.95887 3.29358C6.16626 3.37956 6.35466 3.50556 6.51332 3.6644L6.56457 3.71565C6.76588 3.91256 7.02157 4.04466 7.29865 4.0949C7.57574 4.14514 7.86153 4.11122 8.11916 3.99752H8.18749C8.44013 3.88924 8.65559 3.70946 8.80735 3.48029C8.95912 3.25113 9.04056 2.98259 9.04166 2.70773V2.56252C9.04166 2.10944 9.22164 1.67492 9.54202 1.35455C9.86239 1.03417 10.2969 0.854187 10.75 0.854187C11.2031 0.854187 11.6376 1.03417 11.958 1.35455C12.2783 1.67492 12.4583 2.10944 12.4583 2.56252V2.6394C12.4594 2.91425 12.5409 3.1828 12.6926 3.41196C12.8444 3.64112 13.0599 3.82091 13.3125 3.92919C13.5701 4.04289 13.8559 4.07681 14.133 4.02657C14.4101 3.97632 14.6658 3.84423 14.8671 3.64731L14.9183 3.59606C15.077 3.43723 15.2654 3.31122 15.4728 3.22525C15.6802 3.13928 15.9025 3.09503 16.127 3.09503C16.3515 3.09503 16.5738 3.13928 16.7812 3.22525C16.9885 3.31122 17.177 3.43723 17.3356 3.59606C17.4944 3.75472 17.6205 3.94313 17.7064 4.15052C17.7924 4.35791 17.8366 4.58021 17.8366 4.80471C17.8366 5.02921 17.7924 5.25151 17.7064 5.4589C17.6205 5.66629 17.4944 5.8547 17.3356 6.01335L17.2844 6.0646C17.0874 6.26591 16.9554 6.5216 16.9051 6.79868C16.8549 7.07577 16.8888 7.36156 17.0025 7.61919V7.68752C17.1108 7.94016 17.2906 8.15562 17.5197 8.30738C17.7489 8.45915 18.0174 8.54059 18.2923 8.54169H18.4375C18.8906 8.54169 19.3251 8.72167 19.6455 9.04205C19.9658 9.36242 20.1458 9.79694 20.1458 10.25C20.1458 10.7031 19.9658 11.1376 19.6455 11.458C19.3251 11.7784 18.8906 11.9584 18.4375 11.9584H18.3606C18.0858 11.9594 17.8172 12.0409 17.5881 12.1927C17.3589 12.3444 17.1791 12.5599 17.0708 12.8125V12.8125Z" stroke="black" stroke-width="2" stroke-linecap="round" stroke-linejoin="round"/>
</g>
<defs>
<clipPath id="clip0_4_1983">
<rect width="20.5" height="20.5" fill="white" transform="translate(0.5)"/>
</clipPath>
</defs>
</svg>
