<svg width="28" height="24" viewBox="0 0 28 24" fill="none" xmlns="http://www.w3.org/2000/svg">
<path d="M22.7764 23.3438L18.3042 19.0313C17.5588 19.2604 16.8028 19.4325 16.0361 19.5475C15.2695 19.6625 14.4921 19.7196 13.7042 19.7188C10.8505 19.7188 8.24169 18.9688 5.8778 17.4688C3.51391 15.9688 1.66113 13.9896 0.319464 11.5313C0.212983 11.3438 0.133335 11.1513 0.0805198 10.9538C0.027705 10.7563 0.00087151 10.5529 1.9658e-05 10.3438C-0.000832194 10.1346 0.0260012 9.93125 0.0805198 9.73375C0.135038 9.53625 0.214686 9.34375 0.319464 9.15625C0.787983 8.34375 1.28845 7.55208 1.82085 6.78125C2.35326 6.01042 2.97085 5.32292 3.67363 4.71875L1.02224 2.09375C0.787983 1.86458 0.670853 1.57833 0.670853 1.235C0.670853 0.891667 0.798631 0.594584 1.05419 0.34375C1.28845 0.114583 1.58659 0 1.94863 0C2.31067 0 2.60882 0.114583 2.84308 0.34375L24.5653 21.5938C24.7996 21.8229 24.9222 22.1096 24.9333 22.4538C24.9444 22.7979 24.8217 23.0946 24.5653 23.3438C24.331 23.5729 24.0329 23.6875 23.6709 23.6875C23.3088 23.6875 23.0107 23.5729 22.7764 23.3438ZM13.7042 15.9688C13.9384 15.9688 14.1621 15.9583 14.375 15.9375C14.588 15.9167 14.8009 15.875 15.0139 15.8125L8.11391 9.0625C8.05002 9.27083 8.00743 9.47917 7.98613 9.6875C7.96483 9.89583 7.95419 10.1146 7.95419 10.3438C7.95419 11.9063 8.51343 13.2346 9.63191 14.3288C10.7504 15.4229 12.1078 15.9696 13.7042 15.9688ZM13.7042 0.96875C16.5579 0.96875 19.1722 1.72417 21.5472 3.235C23.9222 4.74583 25.78 6.73 27.1209 9.1875C27.2273 9.35417 27.3074 9.53667 27.3611 9.735C27.4147 9.93333 27.4412 10.1363 27.4403 10.3438C27.4394 10.5513 27.4181 10.7546 27.3764 10.9538C27.3347 11.1529 27.2601 11.335 27.1528 11.5C26.7482 12.2708 26.2958 13 25.7958 13.6875C25.2958 14.375 24.7365 15.0208 24.1181 15.625C23.8199 15.9167 23.4685 16.0521 23.0639 16.0312C22.6593 16.0104 22.3079 15.8542 22.0097 15.5625L19.4542 13.0625C19.3051 12.9167 19.2093 12.7446 19.1667 12.5463C19.1241 12.3479 19.1347 12.145 19.1986 11.9375C19.2838 11.6667 19.3477 11.4062 19.3903 11.1562C19.4329 10.9062 19.4542 10.6354 19.4542 10.3438C19.4542 8.78125 18.8954 7.45333 17.7777 6.36C16.6601 5.26667 15.3023 4.71958 13.7042 4.71875C13.406 4.71875 13.1292 4.73958 12.8736 4.78125C12.6181 4.82292 12.3519 4.88542 12.075 4.96875C11.8621 5.03125 11.6491 5.04167 11.4361 5C11.2232 4.95833 11.0422 4.86458 10.8931 4.71875L9.83891 3.6875C9.43428 3.29167 9.30139 2.83333 9.44024 2.3125C9.57909 1.79167 9.9143 1.45833 10.4459 1.3125C10.9783 1.20833 11.5162 1.125 12.0597 1.0625C12.6032 1 13.1513 0.96875 13.7042 0.96875ZM16.2278 8.03125C16.4621 8.30208 16.6588 8.59917 16.8181 8.9225C16.9774 9.24583 17.0788 9.58417 17.1222 9.9375C17.1435 10.1042 17.0796 10.2188 16.9306 10.2813C16.7815 10.3438 16.6431 10.3125 16.5153 10.1875L13.8959 7.625C13.7681 7.5 13.7417 7.36458 13.8166 7.21875C13.8916 7.07292 14.0138 7 14.1834 7C14.588 7.04167 14.9607 7.15125 15.3014 7.32875C15.6421 7.50625 15.9509 7.74042 16.2278 8.03125Z" fill="#433C3C"/>
</svg>
