<svg width="28" height="24" viewBox="0 0 28 24" fill="none" xmlns="http://www.w3.org/2000/svg">
<path d="M22.8875 23.3438L18.4153 19.0313C17.6699 19.2604 16.9139 19.4325 16.1472 19.5475C15.3805 19.6625 14.6032 19.7196 13.8153 19.7188C10.9616 19.7188 8.35277 18.9688 5.98888 17.4688C3.62499 15.9688 1.77221 13.9896 0.430548 11.5313C0.324067 11.3438 0.244419 11.1513 0.191604 10.9538C0.138789 10.7563 0.111955 10.5529 0.111104 10.3438C0.110252 10.1346 0.137085 9.93125 0.191604 9.73375C0.246122 9.53625 0.32577 9.34375 0.430548 9.15625C0.899067 8.34375 1.39953 7.55208 1.93194 6.78125C2.46434 6.01042 3.08194 5.32292 3.78471 4.71875L1.13333 2.09375C0.899067 1.86458 0.781937 1.57833 0.781937 1.235C0.781937 0.891667 0.909715 0.594584 1.16527 0.34375C1.39953 0.114583 1.69768 0 2.05971 0C2.42175 0 2.7199 0.114583 2.95416 0.34375L24.6764 21.5938C24.9106 21.8229 25.0333 22.1096 25.0444 22.4538C25.0555 22.7979 24.9328 23.0946 24.6764 23.3438C24.4421 23.5729 24.144 23.6875 23.7819 23.6875C23.4199 23.6875 23.1218 23.5729 22.8875 23.3438ZM13.8153 15.9688C14.0495 15.9688 14.2731 15.9583 14.4861 15.9375C14.6991 15.9167 14.912 15.875 15.125 15.8125L8.22499 9.0625C8.1611 9.27083 8.11851 9.47917 8.09722 9.6875C8.07592 9.89583 8.06527 10.1146 8.06527 10.3438C8.06527 11.9063 8.62451 13.2346 9.74299 14.3288C10.8615 15.4229 12.2189 15.9696 13.8153 15.9688ZM13.8153 0.96875C16.669 0.96875 19.2833 1.72417 21.6583 3.235C24.0332 4.74583 25.8911 6.73 27.2319 9.1875C27.3384 9.35417 27.4185 9.53667 27.4722 9.735C27.5258 9.93333 27.5522 10.1363 27.5514 10.3438C27.5505 10.5513 27.5292 10.7546 27.4875 10.9538C27.4458 11.1529 27.3712 11.335 27.2639 11.5C26.8593 12.2708 26.4069 13 25.9069 13.6875C25.4068 14.375 24.8476 15.0208 24.2292 15.625C23.931 15.9167 23.5796 16.0521 23.175 16.0312C22.7704 16.0104 22.419 15.8542 22.1208 15.5625L19.5653 13.0625C19.4162 12.9167 19.3204 12.7446 19.2778 12.5463C19.2352 12.3479 19.2458 12.145 19.3097 11.9375C19.3949 11.6667 19.4588 11.4062 19.5014 11.1562C19.544 10.9062 19.5653 10.6354 19.5653 10.3438C19.5653 8.78125 19.0065 7.45333 17.8888 6.36C16.7712 5.26667 15.4133 4.71958 13.8153 4.71875C13.5171 4.71875 13.2403 4.73958 12.9847 4.78125C12.7292 4.82292 12.463 4.88542 12.1861 4.96875C11.9731 5.03125 11.7602 5.04167 11.5472 5C11.3343 4.95833 11.1532 4.86458 11.0042 4.71875L9.94999 3.6875C9.54536 3.29167 9.41247 2.83333 9.55133 2.3125C9.69018 1.79167 10.0254 1.45833 10.5569 1.3125C11.0893 1.20833 11.6273 1.125 12.1708 1.0625C12.7143 1 13.2624 0.96875 13.8153 0.96875ZM16.3389 8.03125C16.5731 8.30208 16.7699 8.59917 16.9292 8.9225C17.0885 9.24583 17.1899 9.58417 17.2333 9.9375C17.2546 10.1042 17.1907 10.2188 17.0417 10.2813C16.8926 10.3438 16.7542 10.3125 16.6264 10.1875L14.0069 7.625C13.8792 7.5 13.8528 7.36458 13.9277 7.21875C14.0027 7.07292 14.1249 7 14.2944 7C14.6991 7.04167 15.0718 7.15125 15.4125 7.32875C15.7532 7.50625 16.062 7.74042 16.3389 8.03125Z" fill="white"/>
</svg>
