<svg width="30" height="25" viewBox="0 0 30 25" fill="none" xmlns="http://www.w3.org/2000/svg">
<path d="M13.5 3.33331C5.13982 3.33331 0 12.5 0 12.5C0 12.5 5.13982 21.6666 13.5 21.6666C21.8602 21.6666 27 12.5 27 12.5C27 12.5 21.8602 3.33331 13.5 3.33331ZM13.5 18.6111C8.66086 18.6111 4.99991 14.8161 3.21668 12.5C4.49305 10.8423 6.72914 8.44067 9.66477 7.20012C8.97345 8.26943 8.59476 9.5996 8.59091 10.9722C8.59091 12.593 9.10812 14.1474 10.0287 15.2934C10.9494 16.4395 12.198 17.0833 13.5 17.0833C14.802 17.0833 16.0506 16.4395 16.9713 15.2934C17.8919 14.1474 18.4091 12.593 18.4091 10.9722C18.4052 9.5996 18.0266 8.26943 17.3352 7.20012C20.2721 8.44067 22.5094 10.8439 23.7833 12.5C21.9976 14.8191 18.3379 18.6111 13.5 18.6111Z" fill="white"/>
</svg>
